<?xml version="1.0" standalone="no"?><!DOCTYPE svg PUBLIC "-//W3C//DTD SVG 1.1//EN" "http://www.w3.org/Graphics/SVG/1.1/DTD/svg11.dtd"><svg t="1735217553788" class="icon" viewBox="0 0 1024 1024" version="1.1" xmlns="http://www.w3.org/2000/svg" p-id="4307" xmlns:xlink="http://www.w3.org/1999/xlink" width="200" height="200"><path d="M548.096 167.552V0H64v819.2h670.208V186.176H566.656a18.56 18.56 0 0 1-18.56-18.56z m9.28 410.368H240.896a18.56 18.56 0 1 1 0-37.184h316.48a18.624 18.624 0 1 1 0 37.184z m0-124.096H240.896a18.56 18.56 0 1 1 0-37.184h316.48a18.624 18.624 0 1 1 0 37.184zM576 304.832a18.56 18.56 0 0 1-18.624 18.688H240.896a18.624 18.624 0 0 1 0-37.248h316.48c10.24 0 18.624 8.32 18.624 18.624z" fill="#4A90E2" p-id="4308"></path><path d="M585.344 26.304v122.688h122.624L585.344 26.304" fill="#4A90E2" p-id="4309"></path><path d="M610.624 910.592a306.88 306.88 0 1 1 0-613.76 306.88 306.88 0 0 1 0 613.76zM361.344 603.712A249.344 249.344 0 0 0 610.56 853.12c58.496 0 112.192-20.288 154.688-53.952l-350.016-350.08a248.256 248.256 0 0 0-53.952 154.688zM610.56 354.432c-58.432 0-112.128 20.288-154.624 53.952l350.016 350.016a248.064 248.064 0 0 0 53.952-154.688 249.344 249.344 0 0 0-249.344-249.28z" fill="#D0021B" p-id="4310"></path></svg>